<?xml version="1.0" standalone="no"?><!DOCTYPE svg PUBLIC "-//W3C//DTD SVG 1.1//EN" "http://www.w3.org/Graphics/SVG/1.1/DTD/svg11.dtd"><svg class="icon" width="16px" height="16.00px" viewBox="0 0 1024 1024" version="1.1" xmlns="http://www.w3.org/2000/svg"><path d="M511.998976 866.509824c-195.77856 0-359.218176-40.619008-399.730688-94.867456-6.300672 8.438784-9.868288 17.174528-9.868288 26.172416 0 66.844672 183.385088 121.029632 409.598976 121.029632C738.214912 918.844416 921.6 864.658432 921.6 797.814784c0-8.997888-3.567616-17.729536-9.868288-26.172416C871.2192 825.890816 707.774464 866.509824 511.998976 866.509824L511.998976 866.509824 511.998976 866.509824zM511.998976 403.639296C738.214912 403.639296 921.6 336.818176 921.6 254.393344c0-82.420736-183.385088-149.23776-409.601024-149.23776C285.785088 105.155584 102.4 171.972608 102.4 254.39744 102.4 336.823296 285.785088 403.639296 511.998976 403.639296L511.998976 403.639296 511.998976 403.639296zM331.149312 521.104384l0-52.307968c-109.758464-16.024576-191.81568-46.101504-218.881024-82.33472-6.300672 8.43776-9.868288 17.1776-9.868288 26.172416C102.4 460.268544 195.762176 501.356544 331.149312 521.104384L331.149312 521.104384 331.149312 521.104384zM692.84864 468.796416l0 52.307968C828.2368 501.356544 921.6 460.264448 921.6 412.634112c0-8.994816-3.567616-17.738752-9.868288-26.172416C884.670464 422.694912 802.604032 452.77184 692.84864 468.796416L692.84864 468.796416 692.84864 468.796416zM692.84864 598.426624l0 52.298752C828.2368 630.977536 921.6 589.889536 921.6 542.255104c0-8.994816-3.567616-17.73568-9.868288-26.172416C884.670464 552.321024 802.604032 582.392832 692.84864 598.426624L692.84864 598.426624 692.84864 598.426624zM331.149312 650.725376l0-52.298752c-109.758464-16.033792-191.81568-46.1056-218.881024-82.343936-6.300672 8.43776-9.868288 17.178624-9.868288 26.172416C102.4 589.889536 195.762176 630.977536 331.149312 650.725376L331.149312 650.725376 331.149312 650.725376zM331.149312 779.532288 331.149312 727.22432c-109.758464-16.029696-191.81568-46.101504-218.881024-82.33472C105.967616 653.32224 102.4 662.063104 102.4 671.05792 102.4 718.692352 195.762176 759.784448 331.149312 779.532288L331.149312 779.532288 331.149312 779.532288zM692.84864 727.22432l0 52.307968C828.2368 759.784448 921.6 718.692352 921.6 671.05792c0-8.994816-3.567616-17.73568-9.868288-26.16832C884.670464 681.122816 802.604032 711.195648 692.84864 727.22432L692.84864 727.22432 692.84864 727.22432zM490.88512 818.684928c5.279744 3.03104 10.932224 4.545536 16.990208 4.545536 6.0928 0 11.867136-1.514496 17.07008-4.545536 5.246976-3.058688 7.84896-7.732224 7.84896-14.133248l0.653312-18.717696c35.662848-2.221056 63.589376-10.943488 83.843072-26.130432 20.13184-15.182848 30.208-35.224576 30.208-60.162048 0-13.76768-3.127296-25.484288-9.427968-35.26144-6.255616-9.71264-14.590976-18.028544-24.961024-24.932352-10.216448-6.832128-21.9136-12.618752-34.888704-17.25952-13.097984-4.632576-26.067968-8.840192-39.120896-12.673024l3.132416-83.42528c5.856256 1.579008 10.89536 3.492864 15.127552 5.76 4.190208 2.225152 7.762944 4.11136 10.738688 5.712896 4.585472 2.914304 9.509888 5.44256 14.797824 7.7056 5.28384 2.256896 11.259904 3.342336 17.97632 3.342336 11.38688 0 19.388416-2.316288 24.225792-6.966272 4.847616-4.605952 7.247872-10.600448 7.247872-17.939456 0-3.519488-1.866752-7.727104-5.617664-12.744704-3.810304-4.939776-9.398272-9.889792-16.751616-14.833664-7.36768-4.958208-16.59392-9.627648-27.732992-13.9264-11.058176-4.329472-24.109056-7.545856-38.756352-9.83552l1.260544-23.937024c0-6.102016-2.632704-10.735616-7.91552-13.924352-5.20704-3.18464-10.906624-4.791296-16.968704-4.791296-6.0928 0-11.83744 1.606656-16.990208 4.791296-5.28384 3.18976-7.8592 7.822336-7.8592 13.924352l-0.673792 21.554176c-37.454848 1.573888-66.454528 10.48576-86.934528 26.633216-20.62848 16.146432-30.907392 36.993024-30.907392 62.541824 0 13.423616 3.204096 24.927232 9.747456 34.518016 6.549504 9.578496 15.085568 17.80736 25.87136 24.679424 10.692608 6.903808 22.67648 12.717056 35.89632 17.508352 13.17888 4.791296 26.63936 9.279488 40.009728 13.427712l-3.162112 84.862976c-15.946752-3.830784-28.351488-9.088-37.126144-15.835136-4.676608-3.180544-9.726976-6.12864-15.172608-8.839168-5.445632-2.72384-11.8272-4.212736-18.937856-4.578304-21.843968 0-32.739328 7.514112-32.739328 22.547456 0 7.668736 3.204096 14.626816 9.751552 20.811776 6.508544 6.284288 14.844928 11.695104 24.930304 16.3328 10.08128 4.645888 21.178368 8.572928 33.345536 11.753472 12.196864 3.18976 23.821312 5.574656 34.640896 7.175168l-0.531456 21.128192C483.02592 810.952704 485.638144 815.62624 490.88512 818.684928L490.88512 818.684928 490.88512 818.684928zM537.228288 665.986048c10.860544 4.478976 19.68128 9.67168 26.437632 15.58528 6.746112 5.904384 10.12224 13.02016 10.12224 21.308416 0 10.273792-3.54304 18.060288-10.46016 23.507968-6.943744 5.446656-16.453632 8.971264-28.613632 10.551296L537.228288 665.986048 537.228288 665.986048 537.228288 665.986048zM461.563904 578.479104c-7.1168-5.60128-10.780672-12.86656-10.780672-21.837824 0-10.207232 3.821568-18.368512 11.382784-24.435712 7.565312-6.066176 17.737728-9.772032 30.298112-11.012096l-2.443264 72.373248C478.147584 589.116416 468.714496 584.103936 461.563904 578.479104L461.563904 578.479104 461.563904 578.479104zM461.563904 578.479104" /></svg>